:SAMPLES-PER-SECOND 30
:FULLY-SPECIFIED
:DEGREES
555
root  52.7692 38.4639 15.7132 -178.612 -25.5422 -179.164
RightUpLeg  2.61152 -25.9475 -19.5782
RightLeg  10.8878 -29.3329 1.85555
RightFoot  -2.08389 -0.930032 11.2884
RightToes  2.91037e-010 0 -3.6325e-017
Spine  14.4552 -1.57974 2.57758
Spine1  11.8937 -1.70603 1.00543
HEad  -21.3961 16.6403 -18.4477
LeftShoulder1  0.527987 2.08291 -31.1232
LeftArm  -10.9933 -13.3923 -37.8942
LeftForeArm  31.1405 -75.3567 -47.1342
LeftHand  0.208891 -1.08868 -3.73276
RightShoulder  -0.447333 -4.71013 30.1293
RightArm  -17.7464 -17.692 31.8192
RightForeArm  119.73 69.0233 148.272
RightHand  -0.679003 8.97748 -5.86196
LeftUpLeg  -19.134 19.283 7.67483
LeftLeg  20.8978 14.6897 6.40939
LeftFoot  -3.00266 0.407853 -5.46995
LeftToes  -7.53974e-010 3.3384e-011 -1.25048e-011
556
root  51.3759 38.2614 15.6518 -178.338 -30.0449 179.183
RightUpLeg  4.30428 -33.931 -24.0159
RightLeg  13.5949 -18.4839 -0.95653
RightFoot  -4.47476 -0.679748 10.8263
RightToes  2.91037e-010 0 -3.6325e-017
Spine  14.1282 -1.50259 0.995342
Spine1  13.413 -1.9804 1.29962
HEad  -20.766 12.9712 -17.3314
LeftShoulder1  0.344705 2.60049 -32.063
LeftArm  -10.9235 -12.5215 -37.8896
LeftForeArm  32.7121 -75.7902 -49.2711
LeftHand  0.154202 -1.846 -2.32536
RightShoulder  -0.359591 -4.48755 29.3998
RightArm  -17.7941 -19.0311 31.7517
RightForeArm  119.705 68.6049 148.928
RightHand  -0.711717 9.35745 -5.97756
LeftUpLeg  -19.8923 26.4759 3.07081
LeftLeg  22.2653 5.41242 2.74273
LeftFoot  -3.339 0.157348 -1.91282
LeftToes  -7.53974e-010 3.3384e-011 -1.25048e-011
557
root  50.0427 37.9659 15.6675 -178.729 -34.8101 177.606
RightUpLeg  3.84053 -31.876 -25.9262
RightLeg  18.6439 -10.768 -4.23201
RightFoot  -9.51403 -0.192234 7.69042
RightToes  2.91037e-010 0 -3.6325e-017
Spine  15.4593 -1.53703 0.654554
Spine1  13.6948 -2.01404 1.07301
HEad  -19.6402 8.92961 -15.4523
LeftShoulder1  0.500528 2.16676 -31.3149
LeftArm  -11.2049 -11.9769 -38.8775
LeftForeArm  36.0567 -76.2345 -51.1145
LeftHand  0.284064 -1.72179 -4.46488
RightShoulder  -0.373995 -4.52274 29.4348
RightArm  -18.4262 -20.4118 31.5564
RightForeArm  119.547 68.1617 149.589
RightHand  -0.758655 9.51621 -6.28558
LeftUpLeg  -19.7845 25.4048 0.1215
LeftLeg  25.8313 2.10386 1.48057
LeftFoot  -6.46715 0.0490613 -0.185724
LeftToes  -7.53974e-010 3.3384e-011 -1.25048e-011
558
root  48.7554 37.7201 15.669 -179.635 -38.9729 177.013
RightUpLeg  1.28068 -18.3355 -24.227
RightLeg  25.5523 -8.82826 -4.7574
RightFoot  -10.6127 -0.0604067 -0.00335794
RightToes  2.91037e-010 0 -3.6325e-017
Spine  16.8308 -1.47125 1.27278
Spine1  13.9966 -1.7831 0.611505
HEad  -18.4235 5.22957 -13.7196
LeftShoulder1  0.494184 2.19027 -31.6117
LeftArm  -10.8541 -12.4706 -39.4946
LeftForeArm  37.3893 -76.5579 -53.1048
LeftHand  0.145458 -0.8209 -2.66725
RightShoulder  -0.581288 -5.07017 30.3162
RightArm  -18.5253 -19.6542 30.1845
RightForeArm  118.552 68.4816 148.974
RightHand  -0.741499 9.32902 -6.22612
LeftUpLeg  -18.8486 20.8459 -1.47536
LeftLeg  28.9587 2.83595 2.05576
LeftFoot  -9.34546 0.0213821 1.9176
LeftToes  -7.53974e-010 3.3384e-011 -1.25048e-011
559
root  47.6518 37.4862 15.4818 -179.692 -40.7465 175.84
RightUpLeg  -2.78634 -8.08932 -22.1597
RightLeg  33.4612 -3.13414 -2.44683
RightFoot  -11.9166 -0.0708865 2.01929
RightToes  2.91037e-010 0 -3.6325e-017
Spine  16.7114 -0.503312 -0.366175
Spine1  15.3898 -1.2143 0.553417
HEad  -16.9254 3.65602 -12.3651
LeftShoulder1  0.304868 2.71425 -32.4487
LeftArm  -11.1733 -13.2436 -39.3842
LeftForeArm  37.4558 -76.4977 -52.5808
LeftHand  0.141728 -0.847577 -2.56519
RightShoulder  -0.508731 -4.88735 29.8739
RightArm  -18.6506 -16.95 30.8323
RightForeArm  116.877 70.1097 146.07
RightHand  -0.666652 9.66822 -5.52029
LeftUpLeg  -17.6637 18.4478 -3.13573
LeftLeg  31.3684 3.68599 2.78243
LeftFoot  -11.9163 0.0862639 3.10788
LeftToes  -7.53974e-010 3.3384e-011 -1.25048e-011
560
root  46.5205 37.4365 15.204 -179.632 -43.3749 174.94
RightUpLeg  -6.44766 -2.8746 -19.821
RightLeg  40.6223 0.490306 0.111856
RightFoot  -12.227 -0.0577276 3.42829
RightToes  2.91037e-010 0 -3.6325e-017
Spine  16.7718 -0.15746 -1.59757
Spine1  15.4138 -1.30238 0.963457
HEad  -14.977 2.25353 -10.662
LeftShoulder1  0.399338 2.46552 -32.3604
LeftArm  -12.09 -11.6017 -39.5459
LeftForeArm  38.4527 -76.6686 -53.577
LeftHand  0.160115 -1.38112 -2.63438
RightShoulder  -0.551293 -4.98796 30.2876
RightArm  -18.096 -14.3006 31.1
RightForeArm  115.115 71.4721 143.174
RightHand  -0.586601 9.18678 -5.04873
LeftUpLeg  -15.6701 16.3089 -4.49308
LeftLeg  31.9646 3.55502 2.76199
LeftFoot  -13.8257 0.16408 3.77523
LeftToes  -7.53974e-010 3.3384e-011 -1.25048e-011
561
root  45.337 37.6202 14.8432 -179.735 -45.9092 174.815
RightUpLeg  -10.3486 0.173829 -16.5487
RightLeg  45.8775 0.255215 -0.0555483
RightFoot  -11.663 -0.0665217 2.74849
RightToes  2.91037e-010 0 -3.6325e-017
Spine  16.437 -0.212749 -2.14772
Spine1  15.2044 -1.6144 1.33907
HEad  -13.5488 1.26644 -9.5202
LeftShoulder1  0.372974 2.52428 -31.9791
LeftArm  -13.117 -10.0777 -39.8901
LeftForeArm  38.3948 -76.6013 -53.0178
LeftHand  0.148216 -0.762738 -2.74209
RightShoulder  -0.465961 -4.77163 29.8099
RightArm  -17.5934 -12.9633 32.5592
RightForeArm  114.711 72.3328 141.201
RightHand  -0.482506 8.80995 -4.32558
LeftUpLeg  -12.7126 15.3024 -5.01432
LeftLeg  30.4632 2.4986 1.96116
LeftFoot  -15.092 0.219547 3.94163
LeftToes  -7.53974e-010 3.3384e-011 -1.25048e-011
